<svg width="1053" height="157" viewBox="0 0 1053 157" fill="none" xmlns="http://www.w3.org/2000/svg">
<rect width="520.5" height="157" rx="20" fill="#191919"/>
<path opacity="0.8" d="M237.518 49V37.3636H241.45C242.359 37.3636 243.106 37.5189 243.689 37.8295C244.272 38.1364 244.704 38.5587 244.984 39.0966C245.265 39.6345 245.405 40.2462 245.405 40.9318C245.405 41.6174 245.265 42.2254 244.984 42.7557C244.704 43.286 244.274 43.7027 243.695 44.0057C243.115 44.3049 242.375 44.4545 241.473 44.4545H238.291V43.1818H241.428C242.049 43.1818 242.549 43.0909 242.928 42.9091C243.31 42.7273 243.587 42.4697 243.757 42.1364C243.931 41.7992 244.018 41.3977 244.018 40.9318C244.018 40.4659 243.931 40.0587 243.757 39.7102C243.583 39.3617 243.304 39.0928 242.922 38.9034C242.539 38.7102 242.034 38.6136 241.405 38.6136H238.928V49H237.518ZM242.996 43.7727L245.859 49H244.223L241.405 43.7727H242.996ZM251.023 49.1818C250.235 49.1818 249.544 48.9943 248.949 48.6193C248.358 48.2443 247.896 47.7197 247.562 47.0455C247.233 46.3712 247.068 45.5833 247.068 44.6818C247.068 43.7727 247.233 42.9792 247.562 42.3011C247.896 41.6231 248.358 41.0966 248.949 40.7216C249.544 40.3466 250.235 40.1591 251.023 40.1591C251.811 40.1591 252.5 40.3466 253.091 40.7216C253.686 41.0966 254.148 41.6231 254.477 42.3011C254.811 42.9792 254.977 43.7727 254.977 44.6818C254.977 45.5833 254.811 46.3712 254.477 47.0455C254.148 47.7197 253.686 48.2443 253.091 48.6193C252.5 48.9943 251.811 49.1818 251.023 49.1818ZM251.023 47.9773C251.621 47.9773 252.114 47.8239 252.5 47.517C252.886 47.2102 253.172 46.8068 253.358 46.3068C253.544 45.8068 253.636 45.2652 253.636 44.6818C253.636 44.0985 253.544 43.5549 253.358 43.0511C253.172 42.5473 252.886 42.1402 252.5 41.8295C252.114 41.5189 251.621 41.3636 251.023 41.3636C250.424 41.3636 249.932 41.5189 249.545 41.8295C249.159 42.1402 248.873 42.5473 248.688 43.0511C248.502 43.5549 248.409 44.0985 248.409 44.6818C248.409 45.2652 248.502 45.8068 248.688 46.3068C248.873 46.8068 249.159 47.2102 249.545 47.517C249.932 47.8239 250.424 47.9773 251.023 47.9773ZM262.524 45.4318V40.2727H263.865V49H262.524V47.5227H262.433C262.229 47.9659 261.911 48.3428 261.479 48.6534C261.047 48.9602 260.501 49.1136 259.842 49.1136C259.297 49.1136 258.812 48.9943 258.388 48.7557C257.964 48.5133 257.63 48.1496 257.388 47.6648C257.145 47.1761 257.024 46.5606 257.024 45.8182V40.2727H258.365V45.7273C258.365 46.3636 258.543 46.8712 258.899 47.25C259.259 47.6288 259.717 47.8182 260.274 47.8182C260.607 47.8182 260.946 47.733 261.291 47.5625C261.64 47.392 261.931 47.1307 262.166 46.7784C262.405 46.4261 262.524 45.9773 262.524 45.4318ZM267.662 43.75V49H266.321V40.2727H267.616V41.6364H267.73C267.935 41.1932 268.245 40.8371 268.662 40.5682C269.079 40.2955 269.616 40.1591 270.276 40.1591C270.866 40.1591 271.384 40.2803 271.827 40.5227C272.27 40.7614 272.615 41.125 272.861 41.6136C273.107 42.0985 273.23 42.7121 273.23 43.4545V49H271.889V43.5455C271.889 42.8598 271.711 42.3258 271.355 41.9432C270.999 41.5568 270.51 41.3636 269.889 41.3636C269.461 41.3636 269.079 41.4564 268.741 41.642C268.408 41.8277 268.145 42.0985 267.952 42.4545C267.759 42.8106 267.662 43.2424 267.662 43.75ZM278.976 49.1818C278.249 49.1818 277.607 48.9981 277.05 48.6307C276.493 48.2595 276.057 47.7367 275.743 47.0625C275.429 46.3845 275.271 45.5833 275.271 44.6591C275.271 43.7424 275.429 42.947 275.743 42.2727C276.057 41.5985 276.495 41.0777 277.055 40.7102C277.616 40.3428 278.264 40.1591 278.999 40.1591C279.567 40.1591 280.016 40.2538 280.345 40.4432C280.679 40.6288 280.932 40.8409 281.107 41.0795C281.285 41.3144 281.423 41.5076 281.521 41.6591H281.635V37.3636H282.976V49H281.68V47.6591H281.521C281.423 47.8182 281.283 48.0189 281.101 48.2614C280.919 48.5 280.66 48.714 280.322 48.9034C279.985 49.089 279.536 49.1818 278.976 49.1818ZM279.158 47.9773C279.696 47.9773 280.15 47.8371 280.521 47.5568C280.893 47.2727 281.175 46.8807 281.368 46.3807C281.561 45.8769 281.658 45.2955 281.658 44.6364C281.658 43.9848 281.563 43.4148 281.374 42.9261C281.184 42.4337 280.904 42.0511 280.533 41.7784C280.161 41.5019 279.703 41.3636 279.158 41.3636C278.589 41.3636 278.116 41.5095 277.737 41.8011C277.362 42.089 277.08 42.4811 276.891 42.9773C276.705 43.4697 276.612 44.0227 276.612 44.6364C276.612 45.2576 276.707 45.822 276.896 46.3295C277.089 46.8333 277.374 47.2348 277.749 47.5341C278.127 47.8295 278.597 47.9773 279.158 47.9773Z" fill="white"/>
<path d="M235.114 106.318C233.417 106.318 231.905 106.027 230.58 105.443C229.261 104.852 228.22 104.042 227.455 103.011C226.697 101.973 226.307 100.777 226.284 99.4205H231.239C231.269 99.9886 231.455 100.489 231.795 100.92C232.144 101.345 232.606 101.674 233.182 101.909C233.758 102.144 234.405 102.261 235.125 102.261C235.875 102.261 236.538 102.129 237.114 101.864C237.689 101.598 238.14 101.231 238.466 100.761C238.792 100.292 238.955 99.75 238.955 99.1364C238.955 98.5152 238.78 97.9659 238.432 97.4886C238.091 97.0038 237.598 96.625 236.955 96.3523C236.318 96.0795 235.561 95.9432 234.682 95.9432H232.511V92.3295H234.682C235.424 92.3295 236.08 92.2008 236.648 91.9432C237.223 91.6856 237.67 91.3295 237.989 90.875C238.307 90.4129 238.466 89.875 238.466 89.2614C238.466 88.678 238.326 88.1667 238.045 87.7273C237.773 87.2803 237.386 86.9318 236.886 86.6818C236.394 86.4318 235.818 86.3068 235.159 86.3068C234.492 86.3068 233.883 86.428 233.33 86.6705C232.777 86.9053 232.333 87.2424 232 87.6818C231.667 88.1212 231.489 88.6364 231.466 89.2273H226.75C226.773 87.8864 227.155 86.7045 227.898 85.6818C228.64 84.6591 229.64 83.8598 230.898 83.2841C232.163 82.7008 233.591 82.4091 235.182 82.4091C236.788 82.4091 238.193 82.7008 239.398 83.2841C240.602 83.8674 241.538 84.6553 242.205 85.6477C242.879 86.6326 243.212 87.7386 243.205 88.9659C243.212 90.2689 242.807 91.3561 241.989 92.2273C241.178 93.0985 240.121 93.6515 238.818 93.8864V94.0682C240.53 94.2879 241.833 94.8826 242.727 95.8523C243.629 96.8144 244.076 98.0189 244.068 99.4659C244.076 100.792 243.693 101.97 242.92 103C242.155 104.03 241.098 104.841 239.75 105.432C238.402 106.023 236.856 106.318 235.114 106.318ZM257.787 81.6364L250.287 109.5H246.116L253.616 81.6364H257.787ZM270.199 82.7273V106H265.278V87.3977H265.142L259.812 90.7386V86.375L265.574 82.7273H270.199ZM284.855 106.511C282.901 106.504 281.219 106.023 279.81 105.068C278.408 104.114 277.329 102.731 276.571 100.92C275.821 99.1098 275.45 96.9318 275.457 94.3864C275.457 91.8485 275.832 89.6856 276.582 87.8977C277.34 86.1098 278.42 84.75 279.821 83.8182C281.23 82.8788 282.908 82.4091 284.855 82.4091C286.802 82.4091 288.476 82.8788 289.878 83.8182C291.287 84.7576 292.37 86.1212 293.128 87.9091C293.885 89.6894 294.26 91.8485 294.253 94.3864C294.253 96.9394 293.874 99.1212 293.116 100.932C292.366 102.742 291.291 104.125 289.889 105.08C288.488 106.034 286.81 106.511 284.855 106.511ZM284.855 102.432C286.188 102.432 287.253 101.761 288.048 100.42C288.844 99.0795 289.238 97.0682 289.23 94.3864C289.23 92.6212 289.048 91.1515 288.685 89.9773C288.329 88.803 287.821 87.9205 287.162 87.3295C286.51 86.7386 285.741 86.4432 284.855 86.4432C283.529 86.4432 282.469 87.1061 281.673 88.4318C280.878 89.7576 280.476 91.7424 280.469 94.3864C280.469 96.1742 280.647 97.6667 281.003 98.8636C281.366 100.053 281.878 100.947 282.537 101.545C283.196 102.136 283.969 102.432 284.855 102.432Z" fill="white"/>
<rect x="532.5" width="520.5" height="157" rx="20" fill="#191919"/>
<path opacity="0.8" d="M744.68 49H741.089V37.3636H744.839C745.968 37.3636 746.933 37.5966 747.737 38.0625C748.54 38.5246 749.155 39.1894 749.583 40.0568C750.011 40.9205 750.225 41.9545 750.225 43.1591C750.225 44.3712 750.009 45.4148 749.577 46.2898C749.146 47.161 748.517 47.8314 747.691 48.3011C746.865 48.767 745.862 49 744.68 49ZM742.498 47.75H744.589C745.551 47.75 746.348 47.5644 746.981 47.1932C747.613 46.822 748.085 46.2936 748.396 45.608C748.706 44.9223 748.862 44.1061 748.862 43.1591C748.862 42.2197 748.708 41.411 748.401 40.733C748.094 40.0511 747.636 39.5284 747.026 39.1648C746.416 38.7973 745.657 38.6136 744.748 38.6136H742.498V47.75ZM757.907 45.4318V40.2727H759.248V49H757.907V47.5227H757.816C757.612 47.9659 757.293 48.3428 756.862 48.6534C756.43 48.9602 755.884 49.1136 755.225 49.1136C754.68 49.1136 754.195 48.9943 753.771 48.7557C753.346 48.5133 753.013 48.1496 752.771 47.6648C752.528 47.1761 752.407 46.5606 752.407 45.8182V40.2727H753.748V45.7273C753.748 46.3636 753.926 46.8712 754.282 47.25C754.642 47.6288 755.1 47.8182 755.657 47.8182C755.99 47.8182 756.329 47.733 756.674 47.5625C757.022 47.392 757.314 47.1307 757.549 46.7784C757.788 46.4261 757.907 45.9773 757.907 45.4318ZM761.704 49V40.2727H762.999V41.6364H763.113C763.295 41.1705 763.588 40.8087 763.994 40.5511C764.399 40.2898 764.886 40.1591 765.454 40.1591C766.03 40.1591 766.509 40.2898 766.891 40.5511C767.278 40.8087 767.579 41.1705 767.795 41.6364H767.886C768.109 41.1856 768.444 40.8277 768.891 40.5625C769.338 40.2936 769.874 40.1591 770.499 40.1591C771.28 40.1591 771.918 40.4034 772.414 40.892C772.91 41.3769 773.158 42.1326 773.158 43.1591V49H771.817V43.1591C771.817 42.5152 771.641 42.0549 771.289 41.7784C770.937 41.5019 770.522 41.3636 770.045 41.3636C769.431 41.3636 768.956 41.5492 768.619 41.9205C768.281 42.2879 768.113 42.7538 768.113 43.3182V49H766.749V43.0227C766.749 42.5265 766.588 42.1269 766.266 41.8239C765.944 41.517 765.53 41.3636 765.022 41.3636C764.674 41.3636 764.348 41.4564 764.045 41.642C763.746 41.8277 763.503 42.0852 763.317 42.4148C763.136 42.7405 763.045 43.1174 763.045 43.5455V49H761.704ZM775.61 52.2727V40.2727H776.906V41.6591H777.065C777.163 41.5076 777.299 41.3144 777.474 41.0795C777.652 40.8409 777.906 40.6288 778.235 40.4432C778.568 40.2538 779.019 40.1591 779.587 40.1591C780.322 40.1591 780.97 40.3428 781.531 40.7102C782.091 41.0777 782.529 41.5985 782.843 42.2727C783.157 42.947 783.315 43.7424 783.315 44.6591C783.315 45.5833 783.157 46.3845 782.843 47.0625C782.529 47.7367 782.093 48.2595 781.536 48.6307C780.979 48.9981 780.337 49.1818 779.61 49.1818C779.049 49.1818 778.601 49.089 778.263 48.9034C777.926 48.714 777.667 48.5 777.485 48.2614C777.303 48.0189 777.163 47.8182 777.065 47.6591H776.951V52.2727H775.61ZM776.928 44.6364C776.928 45.2955 777.025 45.8769 777.218 46.3807C777.411 46.8807 777.693 47.2727 778.065 47.5568C778.436 47.8371 778.89 47.9773 779.428 47.9773C779.989 47.9773 780.457 47.8295 780.832 47.5341C781.21 47.2348 781.495 46.8333 781.684 46.3295C781.877 45.822 781.974 45.2576 781.974 44.6364C781.974 44.0227 781.879 43.4697 781.69 42.9773C781.504 42.4811 781.222 42.089 780.843 41.8011C780.468 41.5095 779.996 41.3636 779.428 41.3636C778.883 41.3636 778.424 41.5019 778.053 41.7784C777.682 42.0511 777.402 42.4337 777.212 42.9261C777.023 43.4148 776.928 43.9848 776.928 44.6364ZM785.36 49V40.2727H786.701V49H785.36ZM786.042 38.8182C785.781 38.8182 785.555 38.7292 785.366 38.5511C785.18 38.3731 785.087 38.1591 785.087 37.9091C785.087 37.6591 785.18 37.4451 785.366 37.267C785.555 37.089 785.781 37 786.042 37C786.303 37 786.527 37.089 786.712 37.267C786.902 37.4451 786.996 37.6591 786.996 37.9091C786.996 38.1591 786.902 38.3731 786.712 38.5511C786.527 38.7292 786.303 38.8182 786.042 38.8182ZM790.498 43.75V49H789.157V40.2727H790.452V41.6364H790.566C790.771 41.1932 791.081 40.8371 791.498 40.5682C791.915 40.2955 792.452 40.1591 793.112 40.1591C793.702 40.1591 794.219 40.2803 794.663 40.5227C795.106 40.7614 795.451 41.125 795.697 41.6136C795.943 42.0985 796.066 42.7121 796.066 43.4545V49H794.725V43.5455C794.725 42.8598 794.547 42.3258 794.191 41.9432C793.835 41.5568 793.346 41.3636 792.725 41.3636C792.297 41.3636 791.915 41.4564 791.577 41.642C791.244 41.8277 790.981 42.0985 790.788 42.4545C790.594 42.8106 790.498 43.2424 790.498 43.75ZM802.039 52.4545C801.391 52.4545 800.835 52.3712 800.369 52.2045C799.903 52.0417 799.514 51.8258 799.204 51.5568C798.897 51.2917 798.653 51.0076 798.471 50.7045L799.539 49.9545C799.66 50.1136 799.814 50.2955 799.999 50.5C800.185 50.7083 800.439 50.8883 800.761 51.0398C801.086 51.1951 801.513 51.2727 802.039 51.2727C802.744 51.2727 803.325 51.1023 803.783 50.7614C804.242 50.4205 804.471 49.8864 804.471 49.1591V47.3864H804.357C804.259 47.5455 804.119 47.7424 803.937 47.9773C803.759 48.2083 803.501 48.4148 803.164 48.5966C802.831 48.7746 802.38 48.8636 801.812 48.8636C801.107 48.8636 800.475 48.697 799.914 48.3636C799.357 48.0303 798.916 47.5455 798.59 46.9091C798.268 46.2727 798.107 45.5 798.107 44.5909C798.107 43.697 798.264 42.9186 798.579 42.2557C798.893 41.589 799.331 41.0739 799.891 40.7102C800.452 40.3428 801.1 40.1591 801.835 40.1591C802.403 40.1591 802.853 40.2538 803.187 40.4432C803.524 40.6288 803.781 40.8409 803.96 41.0795C804.141 41.3144 804.281 41.5076 804.38 41.6591H804.516V40.2727H805.812V49.25C805.812 50 805.641 50.6098 805.3 51.0795C804.963 51.553 804.509 51.8996 803.937 52.1193C803.369 52.3428 802.736 52.4545 802.039 52.4545ZM801.994 47.6591C802.531 47.6591 802.986 47.536 803.357 47.2898C803.728 47.0436 804.011 46.6894 804.204 46.2273C804.397 45.7652 804.494 45.2121 804.494 44.5682C804.494 43.9394 804.399 43.3845 804.21 42.9034C804.02 42.4223 803.74 42.0455 803.369 41.7727C802.997 41.5 802.539 41.3636 801.994 41.3636C801.425 41.3636 800.952 41.5076 800.573 41.7955C800.198 42.0833 799.916 42.4697 799.727 42.9545C799.541 43.4394 799.448 43.9773 799.448 44.5682C799.448 45.1742 799.543 45.7102 799.732 46.1761C799.925 46.6383 800.21 47.0019 800.585 47.267C800.963 47.5284 801.433 47.6591 801.994 47.6591ZM812.948 49V37.3636H816.88C817.789 37.3636 818.535 37.5189 819.119 37.8295C819.702 38.1364 820.134 38.5587 820.414 39.0966C820.694 39.6345 820.835 40.2462 820.835 40.9318C820.835 41.6174 820.694 42.2254 820.414 42.7557C820.134 43.286 819.704 43.7027 819.124 44.0057C818.545 44.3049 817.804 44.4545 816.903 44.4545H813.721V43.1818H816.857C817.478 43.1818 817.978 43.0909 818.357 42.9091C818.74 42.7273 819.016 42.4697 819.187 42.1364C819.361 41.7992 819.448 41.3977 819.448 40.9318C819.448 40.4659 819.361 40.0587 819.187 39.7102C819.013 39.3617 818.734 39.0928 818.352 38.9034C817.969 38.7102 817.463 38.6136 816.835 38.6136H814.357V49H812.948ZM818.425 43.7727L821.289 49H819.653L816.835 43.7727H818.425ZM825.569 49.2045C825.016 49.2045 824.514 49.1004 824.063 48.892C823.612 48.6799 823.254 48.375 822.989 47.9773C822.724 47.5758 822.592 47.0909 822.592 46.5227C822.592 46.0227 822.69 45.6174 822.887 45.3068C823.084 44.9924 823.347 44.7462 823.677 44.5682C824.006 44.3902 824.37 44.2576 824.768 44.1705C825.169 44.0795 825.573 44.0076 825.978 43.9545C826.508 43.8864 826.938 43.8352 827.268 43.8011C827.601 43.7633 827.844 43.7008 827.995 43.6136C828.15 43.5265 828.228 43.375 828.228 43.1591V43.1136C828.228 42.553 828.075 42.1174 827.768 41.8068C827.465 41.4962 827.004 41.3409 826.387 41.3409C825.747 41.3409 825.245 41.4811 824.881 41.7614C824.518 42.0417 824.262 42.3409 824.114 42.6591L822.842 42.2045C823.069 41.6742 823.372 41.2614 823.751 40.9659C824.133 40.6667 824.55 40.4583 825.001 40.3409C825.455 40.2197 825.902 40.1591 826.342 40.1591C826.622 40.1591 826.944 40.1932 827.308 40.2614C827.675 40.3258 828.029 40.4602 828.37 40.6648C828.715 40.8693 829.001 41.178 829.228 41.5909C829.455 42.0038 829.569 42.5568 829.569 43.25V49H828.228V47.8182H828.16C828.069 48.0076 827.917 48.2102 827.705 48.4261C827.493 48.642 827.211 48.8258 826.859 48.9773C826.506 49.1288 826.076 49.2045 825.569 49.2045ZM825.773 48C826.304 48 826.751 47.8958 827.114 47.6875C827.482 47.4792 827.758 47.2102 827.944 46.8807C828.133 46.5511 828.228 46.2045 828.228 45.8409V44.6136C828.171 44.6818 828.046 44.7443 827.853 44.8011C827.664 44.8542 827.444 44.9015 827.194 44.9432C826.948 44.9811 826.707 45.0152 826.472 45.0455C826.241 45.072 826.054 45.0947 825.91 45.1136C825.561 45.1591 825.236 45.233 824.933 45.3352C824.633 45.4337 824.391 45.5833 824.205 45.7841C824.023 45.9811 823.933 46.25 823.933 46.5909C823.933 47.0568 824.105 47.4091 824.45 47.6477C824.798 47.8826 825.239 48 825.773 48ZM835.812 40.2727V41.4091H831.289V40.2727H835.812ZM832.607 38.1818H833.948V46.5C833.948 46.8788 834.003 47.1629 834.113 47.3523C834.227 47.5379 834.371 47.6629 834.545 47.7273C834.723 47.7879 834.91 47.8182 835.107 47.8182C835.255 47.8182 835.376 47.8106 835.471 47.7955C835.566 47.7765 835.641 47.7614 835.698 47.75L835.971 48.9545C835.88 48.9886 835.753 49.0227 835.59 49.0568C835.427 49.0947 835.221 49.1136 834.971 49.1136C834.592 49.1136 834.221 49.0322 833.857 48.8693C833.497 48.7064 833.198 48.4583 832.96 48.125C832.725 47.7917 832.607 47.3712 832.607 46.8636V38.1818ZM841.394 49.1818C840.553 49.1818 839.828 48.9962 839.218 48.625C838.612 48.25 838.144 47.7273 837.815 47.0568C837.489 46.3826 837.326 45.5985 837.326 44.7045C837.326 43.8106 837.489 43.0227 837.815 42.3409C838.144 41.6553 838.603 41.1212 839.19 40.7386C839.781 40.3523 840.47 40.1591 841.258 40.1591C841.712 40.1591 842.161 40.2348 842.604 40.3864C843.048 40.5379 843.451 40.7841 843.815 41.125C844.178 41.4621 844.468 41.9091 844.684 42.4659C844.9 43.0227 845.008 43.7083 845.008 44.5227V45.0909H838.281V43.9318H843.644C843.644 43.4394 843.546 43 843.349 42.6136C843.156 42.2273 842.879 41.9223 842.519 41.6989C842.163 41.4754 841.743 41.3636 841.258 41.3636C840.724 41.3636 840.262 41.4962 839.871 41.7614C839.485 42.0227 839.188 42.3636 838.979 42.7841C838.771 43.2045 838.667 43.6553 838.667 44.1364V44.9091C838.667 45.5682 838.781 46.1269 839.008 46.5852C839.239 47.0398 839.559 47.3864 839.968 47.625C840.377 47.8598 840.853 47.9773 841.394 47.9773C841.746 47.9773 842.065 47.928 842.349 47.8295C842.637 47.7273 842.885 47.5758 843.093 47.375C843.301 47.1705 843.462 46.9167 843.576 46.6136L844.871 46.9773C844.735 47.4167 844.506 47.803 844.184 48.1364C843.862 48.4659 843.464 48.7235 842.991 48.9091C842.517 49.0909 841.985 49.1818 841.394 49.1818Z" fill="white"/>
<path d="M742.536 96.3182C740.839 96.3182 739.327 96.0265 738.001 95.4432C736.683 94.8523 735.642 94.0417 734.876 93.0114C734.119 91.9735 733.729 90.7765 733.706 89.4205H738.661C738.691 89.9886 738.876 90.4886 739.217 90.9205C739.566 91.3447 740.028 91.6742 740.604 91.9091C741.179 92.1439 741.827 92.2614 742.547 92.2614C743.297 92.2614 743.96 92.1288 744.536 91.8636C745.111 91.5985 745.562 91.2311 745.888 90.7614C746.214 90.2917 746.376 89.75 746.376 89.1364C746.376 88.5152 746.202 87.9659 745.854 87.4886C745.513 87.0038 745.02 86.625 744.376 86.3523C743.74 86.0795 742.982 85.9432 742.104 85.9432H739.933V82.3295H742.104C742.846 82.3295 743.501 82.2008 744.07 81.9432C744.645 81.6856 745.092 81.3295 745.411 80.875C745.729 80.4129 745.888 79.875 745.888 79.2614C745.888 78.678 745.748 78.1667 745.467 77.7273C745.195 77.2803 744.808 76.9318 744.308 76.6818C743.816 76.4318 743.24 76.3068 742.581 76.3068C741.914 76.3068 741.304 76.428 740.751 76.6705C740.198 76.9053 739.755 77.2424 739.422 77.6818C739.089 78.1212 738.911 78.6364 738.888 79.2273H734.172C734.195 77.8864 734.577 76.7045 735.32 75.6818C736.062 74.6591 737.062 73.8598 738.32 73.2841C739.585 72.7008 741.013 72.4091 742.604 72.4091C744.21 72.4091 745.615 72.7008 746.82 73.2841C748.024 73.8674 748.96 74.6553 749.626 75.6477C750.301 76.6326 750.634 77.7386 750.626 78.9659C750.634 80.2689 750.229 81.3561 749.411 82.2273C748.6 83.0985 747.543 83.6515 746.24 83.8864V84.0682C747.952 84.2879 749.255 84.8826 750.149 85.8523C751.051 86.8144 751.498 88.0189 751.49 89.4659C751.498 90.7917 751.115 91.9697 750.342 93C749.577 94.0303 748.52 94.8409 747.172 95.4318C745.823 96.0227 744.278 96.3182 742.536 96.3182ZM755.027 96V92.4545L763.311 84.7841C764.016 84.1023 764.607 83.4886 765.084 82.9432C765.569 82.3977 765.936 81.8636 766.186 81.3409C766.436 80.8106 766.561 80.2386 766.561 79.625C766.561 78.9432 766.406 78.3561 766.095 77.8636C765.785 77.3636 765.36 76.9811 764.822 76.7159C764.285 76.4432 763.675 76.3068 762.993 76.3068C762.281 76.3068 761.66 76.4508 761.129 76.7386C760.599 77.0265 760.19 77.4394 759.902 77.9773C759.614 78.5152 759.47 79.1553 759.47 79.8977H754.8C754.8 78.375 755.144 77.053 755.834 75.9318C756.523 74.8106 757.489 73.9432 758.732 73.3295C759.974 72.7159 761.406 72.4091 763.027 72.4091C764.694 72.4091 766.144 72.7045 767.379 73.2955C768.622 73.8788 769.588 74.6894 770.277 75.7273C770.966 76.7652 771.311 77.9545 771.311 79.2955C771.311 80.1742 771.137 81.0417 770.788 81.8977C770.447 82.7538 769.838 83.7045 768.959 84.75C768.08 85.7879 766.841 87.0341 765.243 88.4886L761.845 91.8182V91.9773H771.618V96H755.027ZM778.058 96.2955C777.308 96.2955 776.664 96.0303 776.126 95.5C775.596 94.9621 775.331 94.3182 775.331 93.5682C775.331 92.8258 775.596 92.1894 776.126 91.6591C776.664 91.1288 777.308 90.8636 778.058 90.8636C778.786 90.8636 779.422 91.1288 779.967 91.6591C780.513 92.1894 780.786 92.8258 780.786 93.5682C780.786 94.0682 780.657 94.5265 780.399 94.9432C780.149 95.3523 779.82 95.6818 779.411 95.9318C779.001 96.1742 778.551 96.2955 778.058 96.2955ZM792.902 96.5114C790.947 96.5038 789.266 96.0227 787.857 95.0682C786.455 94.1136 785.375 92.7311 784.618 90.9205C783.868 89.1098 783.497 86.9318 783.504 84.3864C783.504 81.8485 783.879 79.6856 784.629 77.8977C785.387 76.1098 786.466 74.75 787.868 73.8182C789.277 72.8788 790.955 72.4091 792.902 72.4091C794.849 72.4091 796.523 72.8788 797.925 73.8182C799.334 74.7576 800.417 76.1212 801.175 77.9091C801.932 79.6894 802.307 81.8485 802.3 84.3864C802.3 86.9394 801.921 89.1212 801.163 90.9318C800.413 92.7424 799.338 94.125 797.936 95.0795C796.535 96.0341 794.857 96.5114 792.902 96.5114ZM792.902 92.4318C794.235 92.4318 795.3 91.7614 796.095 90.4205C796.891 89.0795 797.285 87.0682 797.277 84.3864C797.277 82.6212 797.095 81.1515 796.732 79.9773C796.375 78.803 795.868 77.9205 795.209 77.3295C794.557 76.7386 793.788 76.4432 792.902 76.4432C791.576 76.4432 790.516 77.1061 789.72 78.4318C788.925 79.7576 788.523 81.7424 788.516 84.3864C788.516 86.1742 788.694 87.6667 789.05 88.8636C789.413 90.053 789.925 90.947 790.584 91.5455C791.243 92.1364 792.016 92.4318 792.902 92.4318ZM814.933 96.5114C812.979 96.5038 811.297 96.0227 809.888 95.0682C808.486 94.1136 807.407 92.7311 806.649 90.9205C805.899 89.1098 805.528 86.9318 805.536 84.3864C805.536 81.8485 805.911 79.6856 806.661 77.8977C807.418 76.1098 808.498 74.75 809.899 73.8182C811.308 72.8788 812.986 72.4091 814.933 72.4091C816.88 72.4091 818.554 72.8788 819.956 73.8182C821.365 74.7576 822.448 76.1212 823.206 77.9091C823.964 79.6894 824.339 81.8485 824.331 84.3864C824.331 86.9394 823.952 89.1212 823.195 90.9318C822.445 92.7424 821.369 94.125 819.967 95.0795C818.566 96.0341 816.888 96.5114 814.933 96.5114ZM814.933 92.4318C816.267 92.4318 817.331 91.7614 818.126 90.4205C818.922 89.0795 819.316 87.0682 819.308 84.3864C819.308 82.6212 819.126 81.1515 818.763 79.9773C818.407 78.803 817.899 77.9205 817.24 77.3295C816.589 76.7386 815.82 76.4432 814.933 76.4432C813.607 76.4432 812.547 77.1061 811.751 78.4318C810.956 79.7576 810.554 81.7424 810.547 84.3864C810.547 86.1742 810.725 87.6667 811.081 88.8636C811.445 90.053 811.956 90.947 812.615 91.5455C813.274 92.1364 814.047 92.4318 814.933 92.4318ZM840.578 91.6364V90.4091C840.578 89.4773 840.775 88.6212 841.169 87.8409C841.571 87.053 842.15 86.4242 842.908 85.9545C843.673 85.4773 844.605 85.2386 845.703 85.2386C846.817 85.2386 847.752 85.4735 848.51 85.9432C849.275 86.4129 849.851 87.0417 850.237 87.8295C850.631 88.6098 850.828 89.4697 850.828 90.4091V91.6364C850.828 92.5682 850.631 93.428 850.237 94.2159C849.843 94.9962 849.264 95.6212 848.499 96.0909C847.733 96.5682 846.802 96.8068 845.703 96.8068C844.589 96.8068 843.654 96.5682 842.896 96.0909C842.139 95.6212 841.563 94.9962 841.169 94.2159C840.775 93.428 840.578 92.5682 840.578 91.6364ZM843.885 90.4091V91.6364C843.885 92.1742 844.014 92.6818 844.271 93.1591C844.536 93.6364 845.014 93.875 845.703 93.875C846.393 93.875 846.862 93.6402 847.112 93.1705C847.37 92.7008 847.499 92.1894 847.499 91.6364V90.4091C847.499 89.8561 847.377 89.3409 847.135 88.8636C846.893 88.3864 846.415 88.1477 845.703 88.1477C845.021 88.1477 844.548 88.3864 844.283 88.8636C844.018 89.3409 843.885 89.8561 843.885 90.4091ZM828.635 78.3182V77.0909C828.635 76.1515 828.836 75.2917 829.237 74.5114C829.639 73.7235 830.218 73.0947 830.976 72.625C831.741 72.1553 832.665 71.9205 833.749 71.9205C834.87 71.9205 835.809 72.1553 836.567 72.625C837.324 73.0947 837.9 73.7235 838.294 74.5114C838.688 75.2917 838.885 76.1515 838.885 77.0909V78.3182C838.885 79.2576 838.684 80.1174 838.283 80.8977C837.889 81.678 837.309 82.303 836.544 82.7727C835.786 83.2348 834.855 83.4659 833.749 83.4659C832.643 83.4659 831.707 83.2311 830.942 82.7614C830.184 82.2841 829.608 81.6591 829.214 80.8864C828.828 80.1061 828.635 79.25 828.635 78.3182ZM831.964 77.0909V78.3182C831.964 78.8712 832.093 79.3826 832.351 79.8523C832.616 80.322 833.082 80.5568 833.749 80.5568C834.446 80.5568 834.919 80.322 835.169 79.8523C835.427 79.3826 835.555 78.8712 835.555 78.3182V77.0909C835.555 76.5379 835.434 76.0227 835.192 75.5455C834.949 75.0682 834.468 74.8295 833.749 74.8295C833.074 74.8295 832.608 75.072 832.351 75.5568C832.093 76.0417 831.964 76.553 831.964 77.0909ZM830.135 96L846.135 72.7273H849.112L833.112 96H830.135Z" fill="white"/>
<path opacity="0.98" d="M714.657 115.636C714.657 114.562 714.797 113.575 715.075 112.675C715.356 111.771 715.757 110.94 716.277 110.182H717.163C716.958 110.463 716.767 110.81 716.588 111.222C716.412 111.631 716.257 112.081 716.123 112.572C715.99 113.061 715.885 113.567 715.808 114.089C715.734 114.612 715.697 115.128 715.697 115.636C715.697 116.312 715.762 116.999 715.893 117.695C716.024 118.391 716.2 119.037 716.422 119.634C716.643 120.23 716.89 120.716 717.163 121.091H716.277C715.757 120.332 715.356 119.503 715.075 118.602C714.797 117.699 714.657 116.71 714.657 115.636ZM718.425 118.21V117.341L722.261 111.273H722.891V112.619H722.465L719.567 117.205V117.273H724.732V118.21H718.425ZM722.533 120V117.946V117.541V111.273H723.539V120H722.533ZM729.056 120.119C728.556 120.119 728.106 120.02 727.706 119.821C727.305 119.622 726.984 119.349 726.743 119.003C726.501 118.656 726.369 118.261 726.346 117.818H727.369C727.409 118.213 727.588 118.54 727.906 118.798C728.227 119.054 728.61 119.182 729.056 119.182C729.414 119.182 729.733 119.098 730.011 118.93C730.292 118.763 730.512 118.533 730.672 118.24C730.833 117.945 730.914 117.611 730.914 117.239C730.914 116.858 730.831 116.518 730.663 116.22C730.498 115.919 730.271 115.682 729.981 115.509C729.691 115.335 729.36 115.247 728.988 115.244C728.721 115.241 728.447 115.283 728.166 115.368C727.885 115.45 727.653 115.557 727.471 115.688L726.483 115.568L727.011 111.273H731.545V112.21H727.897L727.591 114.784H727.642C727.821 114.642 728.045 114.524 728.315 114.43C728.585 114.337 728.866 114.29 729.159 114.29C729.693 114.29 730.169 114.418 730.586 114.673C731.007 114.926 731.336 115.273 731.575 115.713C731.816 116.153 731.937 116.656 731.937 117.222C731.937 117.778 731.812 118.276 731.562 118.713C731.315 119.148 730.974 119.491 730.539 119.744C730.105 119.994 729.61 120.119 729.056 120.119ZM736.477 120.119C735.835 120.119 735.288 119.945 734.836 119.595C734.384 119.243 734.039 118.733 733.8 118.065C733.562 117.395 733.442 116.585 733.442 115.636C733.442 114.693 733.562 113.888 733.8 113.22C734.042 112.55 734.388 112.038 734.84 111.686C735.295 111.331 735.84 111.153 736.477 111.153C737.113 111.153 737.657 111.331 738.109 111.686C738.563 112.038 738.91 112.55 739.148 113.22C739.39 113.888 739.511 114.693 739.511 115.636C739.511 116.585 739.391 117.395 739.153 118.065C738.914 118.733 738.569 119.243 738.117 119.595C737.665 119.945 737.119 120.119 736.477 120.119ZM736.477 119.182C737.113 119.182 737.607 118.875 737.96 118.261C738.312 117.648 738.488 116.773 738.488 115.636C738.488 114.881 738.407 114.237 738.245 113.706C738.086 113.175 737.856 112.77 737.555 112.491C737.256 112.213 736.897 112.074 736.477 112.074C735.846 112.074 735.353 112.385 734.998 113.007C734.643 113.626 734.465 114.503 734.465 115.636C734.465 116.392 734.545 117.034 734.704 117.562C734.863 118.091 735.092 118.493 735.39 118.768C735.691 119.044 736.053 119.182 736.477 119.182ZM742.342 118.807L742.274 119.267C742.226 119.591 742.152 119.938 742.053 120.307C741.956 120.676 741.855 121.024 741.75 121.351C741.645 121.678 741.558 121.938 741.49 122.131H740.723C740.76 121.949 740.808 121.709 740.868 121.411C740.928 121.112 740.987 120.778 741.047 120.409C741.109 120.043 741.161 119.668 741.2 119.284L741.251 118.807H742.342ZM746.73 120.119C746.088 120.119 745.542 119.945 745.09 119.595C744.638 119.243 744.293 118.733 744.054 118.065C743.816 117.395 743.696 116.585 743.696 115.636C743.696 114.693 743.816 113.888 744.054 113.22C744.296 112.55 744.642 112.038 745.094 111.686C745.549 111.331 746.094 111.153 746.73 111.153C747.367 111.153 747.911 111.331 748.363 111.686C748.817 112.038 749.164 112.55 749.402 113.22C749.644 113.888 749.765 114.693 749.765 115.636C749.765 116.585 749.645 117.395 749.407 118.065C749.168 118.733 748.823 119.243 748.371 119.595C747.919 119.945 747.373 120.119 746.73 120.119ZM746.73 119.182C747.367 119.182 747.861 118.875 748.213 118.261C748.566 117.648 748.742 116.773 748.742 115.636C748.742 114.881 748.661 114.237 748.499 113.706C748.34 113.175 748.11 112.77 747.809 112.491C747.51 112.213 747.151 112.074 746.73 112.074C746.1 112.074 745.607 112.385 745.252 113.007C744.897 113.626 744.719 114.503 744.719 115.636C744.719 116.392 744.799 117.034 744.958 117.562C745.117 118.091 745.346 118.493 745.644 118.768C745.945 119.044 746.307 119.182 746.73 119.182ZM754.23 120.119C753.588 120.119 753.042 119.945 752.59 119.595C752.138 119.243 751.793 118.733 751.554 118.065C751.316 117.395 751.196 116.585 751.196 115.636C751.196 114.693 751.316 113.888 751.554 113.22C751.796 112.55 752.142 112.038 752.594 111.686C753.049 111.331 753.594 111.153 754.23 111.153C754.867 111.153 755.411 111.331 755.863 111.686C756.317 112.038 756.664 112.55 756.902 113.22C757.144 113.888 757.265 114.693 757.265 115.636C757.265 116.585 757.145 117.395 756.907 118.065C756.668 118.733 756.323 119.243 755.871 119.595C755.419 119.945 754.873 120.119 754.23 120.119ZM754.23 119.182C754.867 119.182 755.361 118.875 755.713 118.261C756.066 117.648 756.242 116.773 756.242 115.636C756.242 114.881 756.161 114.237 755.999 113.706C755.84 113.175 755.61 112.77 755.309 112.491C755.01 112.213 754.651 112.074 754.23 112.074C753.6 112.074 753.107 112.385 752.752 113.007C752.397 113.626 752.219 114.503 752.219 115.636C752.219 116.392 752.299 117.034 752.458 117.562C752.617 118.091 752.846 118.493 753.144 118.768C753.445 119.044 753.807 119.182 754.23 119.182ZM761.73 120.119C761.088 120.119 760.542 119.945 760.09 119.595C759.638 119.243 759.293 118.733 759.054 118.065C758.816 117.395 758.696 116.585 758.696 115.636C758.696 114.693 758.816 113.888 759.054 113.22C759.296 112.55 759.642 112.038 760.094 111.686C760.549 111.331 761.094 111.153 761.73 111.153C762.367 111.153 762.911 111.331 763.363 111.686C763.817 112.038 764.164 112.55 764.402 113.22C764.644 113.888 764.765 114.693 764.765 115.636C764.765 116.585 764.645 117.395 764.407 118.065C764.168 118.733 763.823 119.243 763.371 119.595C762.919 119.945 762.373 120.119 761.73 120.119ZM761.73 119.182C762.367 119.182 762.861 118.875 763.213 118.261C763.566 117.648 763.742 116.773 763.742 115.636C763.742 114.881 763.661 114.237 763.499 113.706C763.34 113.175 763.11 112.77 762.809 112.491C762.51 112.213 762.151 112.074 761.73 112.074C761.1 112.074 760.607 112.385 760.252 113.007C759.897 113.626 759.719 114.503 759.719 115.636C759.719 116.392 759.799 117.034 759.958 117.562C760.117 118.091 760.346 118.493 760.644 118.768C760.945 119.044 761.307 119.182 761.73 119.182ZM766.829 120.068C766.619 120.068 766.439 119.993 766.288 119.842C766.137 119.692 766.062 119.511 766.062 119.301C766.062 119.091 766.137 118.911 766.288 118.76C766.439 118.609 766.619 118.534 766.829 118.534C767.039 118.534 767.22 118.609 767.37 118.76C767.521 118.911 767.596 119.091 767.596 119.301C767.596 119.44 767.561 119.568 767.49 119.685C767.422 119.801 767.329 119.895 767.213 119.966C767.099 120.034 766.971 120.068 766.829 120.068ZM771.926 120.119C771.284 120.119 770.737 119.945 770.285 119.595C769.833 119.243 769.488 118.733 769.25 118.065C769.011 117.395 768.892 116.585 768.892 115.636C768.892 114.693 769.011 113.888 769.25 113.22C769.491 112.55 769.838 112.038 770.289 111.686C770.744 111.331 771.289 111.153 771.926 111.153C772.562 111.153 773.106 111.331 773.558 111.686C774.012 112.038 774.359 112.55 774.598 113.22C774.839 113.888 774.96 114.693 774.96 115.636C774.96 116.585 774.841 117.395 774.602 118.065C774.363 118.733 774.018 119.243 773.566 119.595C773.115 119.945 772.568 120.119 771.926 120.119ZM771.926 119.182C772.562 119.182 773.056 118.875 773.409 118.261C773.761 117.648 773.937 116.773 773.937 115.636C773.937 114.881 773.856 114.237 773.694 113.706C773.535 113.175 773.305 112.77 773.004 112.491C772.706 112.213 772.346 112.074 771.926 112.074C771.295 112.074 770.802 112.385 770.447 113.007C770.092 113.626 769.914 114.503 769.914 115.636C769.914 116.392 769.994 117.034 770.153 117.562C770.312 118.091 770.541 118.493 770.839 118.768C771.14 119.044 771.502 119.182 771.926 119.182ZM779.426 120.119C778.784 120.119 778.237 119.945 777.785 119.595C777.333 119.243 776.988 118.733 776.75 118.065C776.511 117.395 776.392 116.585 776.392 115.636C776.392 114.693 776.511 113.888 776.75 113.22C776.991 112.55 777.338 112.038 777.789 111.686C778.244 111.331 778.789 111.153 779.426 111.153C780.062 111.153 780.606 111.331 781.058 111.686C781.512 112.038 781.859 112.55 782.098 113.22C782.339 113.888 782.46 114.693 782.46 115.636C782.46 116.585 782.341 117.395 782.102 118.065C781.863 118.733 781.518 119.243 781.066 119.595C780.615 119.945 780.068 120.119 779.426 120.119ZM779.426 119.182C780.062 119.182 780.556 118.875 780.909 118.261C781.261 117.648 781.437 116.773 781.437 115.636C781.437 114.881 781.356 114.237 781.194 113.706C781.035 113.175 780.805 112.77 780.504 112.491C780.206 112.213 779.846 112.074 779.426 112.074C778.795 112.074 778.302 112.385 777.947 113.007C777.592 113.626 777.414 114.503 777.414 115.636C777.414 116.392 777.494 117.034 777.653 117.562C777.812 118.091 778.041 118.493 778.339 118.768C778.64 119.044 779.002 119.182 779.426 119.182ZM790.556 110.864L787.744 121.312H786.824L789.636 110.864H790.556ZM798.175 111.273V120H797.118V112.381H797.067L794.936 113.795V112.722L797.118 111.273H798.175ZM801.686 118.807L801.618 119.267C801.57 119.591 801.496 119.938 801.396 120.307C801.3 120.676 801.199 121.024 801.094 121.351C800.989 121.678 800.902 121.938 800.834 122.131H800.067C800.104 121.949 800.152 121.709 800.212 121.411C800.271 121.112 800.331 120.778 800.391 120.409C800.453 120.043 800.504 119.668 800.544 119.284L800.595 118.807H801.686ZM806.074 120.119C805.432 120.119 804.885 119.945 804.434 119.595C803.982 119.243 803.637 118.733 803.398 118.065C803.159 117.395 803.04 116.585 803.04 115.636C803.04 114.693 803.159 113.888 803.398 113.22C803.64 112.55 803.986 112.038 804.438 111.686C804.892 111.331 805.438 111.153 806.074 111.153C806.711 111.153 807.255 111.331 807.706 111.686C808.161 112.038 808.507 112.55 808.746 113.22C808.988 113.888 809.108 114.693 809.108 115.636C809.108 116.585 808.989 117.395 808.75 118.065C808.512 118.733 808.167 119.243 807.715 119.595C807.263 119.945 806.716 120.119 806.074 120.119ZM806.074 119.182C806.711 119.182 807.205 118.875 807.557 118.261C807.909 117.648 808.086 116.773 808.086 115.636C808.086 114.881 808.005 114.237 807.843 113.706C807.684 113.175 807.453 112.77 807.152 112.491C806.854 112.213 806.495 112.074 806.074 112.074C805.444 112.074 804.951 112.385 804.596 113.007C804.24 113.626 804.063 114.503 804.063 115.636C804.063 116.392 804.142 117.034 804.301 117.562C804.461 118.091 804.689 118.493 804.988 118.768C805.289 119.044 805.651 119.182 806.074 119.182ZM813.574 120.119C812.932 120.119 812.385 119.945 811.934 119.595C811.482 119.243 811.137 118.733 810.898 118.065C810.659 117.395 810.54 116.585 810.54 115.636C810.54 114.693 810.659 113.888 810.898 113.22C811.14 112.55 811.486 112.038 811.938 111.686C812.392 111.331 812.938 111.153 813.574 111.153C814.211 111.153 814.755 111.331 815.206 111.686C815.661 112.038 816.007 112.55 816.246 113.22C816.488 113.888 816.608 114.693 816.608 115.636C816.608 116.585 816.489 117.395 816.25 118.065C816.012 118.733 815.667 119.243 815.215 119.595C814.763 119.945 814.216 120.119 813.574 120.119ZM813.574 119.182C814.211 119.182 814.705 118.875 815.057 118.261C815.409 117.648 815.586 116.773 815.586 115.636C815.586 114.881 815.505 114.237 815.343 113.706C815.184 113.175 814.953 112.77 814.652 112.491C814.354 112.213 813.995 112.074 813.574 112.074C812.944 112.074 812.451 112.385 812.096 113.007C811.74 113.626 811.563 114.503 811.563 115.636C811.563 116.392 811.642 117.034 811.801 117.562C811.961 118.091 812.189 118.493 812.488 118.768C812.789 119.044 813.151 119.182 813.574 119.182ZM821.074 120.119C820.432 120.119 819.885 119.945 819.434 119.595C818.982 119.243 818.637 118.733 818.398 118.065C818.159 117.395 818.04 116.585 818.04 115.636C818.04 114.693 818.159 113.888 818.398 113.22C818.64 112.55 818.986 112.038 819.438 111.686C819.892 111.331 820.438 111.153 821.074 111.153C821.711 111.153 822.255 111.331 822.706 111.686C823.161 112.038 823.507 112.55 823.746 113.22C823.988 113.888 824.108 114.693 824.108 115.636C824.108 116.585 823.989 117.395 823.75 118.065C823.512 118.733 823.167 119.243 822.715 119.595C822.263 119.945 821.716 120.119 821.074 120.119ZM821.074 119.182C821.711 119.182 822.205 118.875 822.557 118.261C822.909 117.648 823.086 116.773 823.086 115.636C823.086 114.881 823.005 114.237 822.843 113.706C822.684 113.175 822.453 112.77 822.152 112.491C821.854 112.213 821.495 112.074 821.074 112.074C820.444 112.074 819.951 112.385 819.596 113.007C819.24 113.626 819.063 114.503 819.063 115.636C819.063 116.392 819.142 117.034 819.301 117.562C819.461 118.091 819.689 118.493 819.988 118.768C820.289 119.044 820.651 119.182 821.074 119.182ZM826.94 118.807L826.872 119.267C826.824 119.591 826.75 119.938 826.65 120.307C826.554 120.676 826.453 121.024 826.348 121.351C826.243 121.678 826.156 121.938 826.088 122.131H825.321C825.358 121.949 825.406 121.709 825.466 121.411C825.525 121.112 825.585 120.778 825.645 120.409C825.707 120.043 825.758 119.668 825.798 119.284L825.849 118.807H826.94ZM831.328 120.119C830.686 120.119 830.139 119.945 829.688 119.595C829.236 119.243 828.891 118.733 828.652 118.065C828.413 117.395 828.294 116.585 828.294 115.636C828.294 114.693 828.413 113.888 828.652 113.22C828.893 112.55 829.24 112.038 829.692 111.686C830.146 111.331 830.692 111.153 831.328 111.153C831.964 111.153 832.509 111.331 832.96 111.686C833.415 112.038 833.761 112.55 834 113.22C834.241 113.888 834.362 114.693 834.362 115.636C834.362 116.585 834.243 117.395 834.004 118.065C833.766 118.733 833.42 119.243 832.969 119.595C832.517 119.945 831.97 120.119 831.328 120.119ZM831.328 119.182C831.964 119.182 832.459 118.875 832.811 118.261C833.163 117.648 833.339 116.773 833.339 115.636C833.339 114.881 833.259 114.237 833.097 113.706C832.938 113.175 832.707 112.77 832.406 112.491C832.108 112.213 831.749 112.074 831.328 112.074C830.697 112.074 830.205 112.385 829.849 113.007C829.494 113.626 829.317 114.503 829.317 115.636C829.317 116.392 829.396 117.034 829.555 117.562C829.714 118.091 829.943 118.493 830.241 118.768C830.543 119.044 830.905 119.182 831.328 119.182ZM838.828 120.119C838.186 120.119 837.639 119.945 837.188 119.595C836.736 119.243 836.391 118.733 836.152 118.065C835.913 117.395 835.794 116.585 835.794 115.636C835.794 114.693 835.913 113.888 836.152 113.22C836.393 112.55 836.74 112.038 837.192 111.686C837.646 111.331 838.192 111.153 838.828 111.153C839.464 111.153 840.009 111.331 840.46 111.686C840.915 112.038 841.261 112.55 841.5 113.22C841.741 113.888 841.862 114.693 841.862 115.636C841.862 116.585 841.743 117.395 841.504 118.065C841.266 118.733 840.92 119.243 840.469 119.595C840.017 119.945 839.47 120.119 838.828 120.119ZM838.828 119.182C839.464 119.182 839.959 118.875 840.311 118.261C840.663 117.648 840.839 116.773 840.839 115.636C840.839 114.881 840.759 114.237 840.597 113.706C840.438 113.175 840.207 112.77 839.906 112.491C839.608 112.213 839.249 112.074 838.828 112.074C838.197 112.074 837.705 112.385 837.349 113.007C836.994 113.626 836.817 114.503 836.817 115.636C836.817 116.392 836.896 117.034 837.055 117.562C837.214 118.091 837.443 118.493 837.741 118.768C838.043 119.044 838.405 119.182 838.828 119.182ZM846.328 120.119C845.686 120.119 845.139 119.945 844.688 119.595C844.236 119.243 843.891 118.733 843.652 118.065C843.413 117.395 843.294 116.585 843.294 115.636C843.294 114.693 843.413 113.888 843.652 113.22C843.893 112.55 844.24 112.038 844.692 111.686C845.146 111.331 845.692 111.153 846.328 111.153C846.964 111.153 847.509 111.331 847.96 111.686C848.415 112.038 848.761 112.55 849 113.22C849.241 113.888 849.362 114.693 849.362 115.636C849.362 116.585 849.243 117.395 849.004 118.065C848.766 118.733 848.42 119.243 847.969 119.595C847.517 119.945 846.97 120.119 846.328 120.119ZM846.328 119.182C846.964 119.182 847.459 118.875 847.811 118.261C848.163 117.648 848.339 116.773 848.339 115.636C848.339 114.881 848.259 114.237 848.097 113.706C847.938 113.175 847.707 112.77 847.406 112.491C847.108 112.213 846.749 112.074 846.328 112.074C845.697 112.074 845.205 112.385 844.849 113.007C844.494 113.626 844.317 114.503 844.317 115.636C844.317 116.392 844.396 117.034 844.555 117.562C844.714 118.091 844.943 118.493 845.241 118.768C845.543 119.044 845.905 119.182 846.328 119.182ZM851.427 120.068C851.217 120.068 851.036 119.993 850.886 119.842C850.735 119.692 850.66 119.511 850.66 119.301C850.66 119.091 850.735 118.911 850.886 118.76C851.036 118.609 851.217 118.534 851.427 118.534C851.637 118.534 851.817 118.609 851.968 118.76C852.119 118.911 852.194 119.091 852.194 119.301C852.194 119.44 852.158 119.568 852.087 119.685C852.019 119.801 851.927 119.895 851.81 119.966C851.697 120.034 851.569 120.068 851.427 120.068ZM856.523 120.119C855.881 120.119 855.335 119.945 854.883 119.595C854.431 119.243 854.086 118.733 853.847 118.065C853.609 117.395 853.489 116.585 853.489 115.636C853.489 114.693 853.609 113.888 853.847 113.22C854.089 112.55 854.435 112.038 854.887 111.686C855.342 111.331 855.887 111.153 856.523 111.153C857.16 111.153 857.704 111.331 858.156 111.686C858.61 112.038 858.957 112.55 859.195 113.22C859.437 113.888 859.558 114.693 859.558 115.636C859.558 116.585 859.438 117.395 859.2 118.065C858.961 118.733 858.616 119.243 858.164 119.595C857.712 119.945 857.165 120.119 856.523 120.119ZM856.523 119.182C857.16 119.182 857.654 118.875 858.006 118.261C858.359 117.648 858.535 116.773 858.535 115.636C858.535 114.881 858.454 114.237 858.292 113.706C858.133 113.175 857.903 112.77 857.602 112.491C857.303 112.213 856.944 112.074 856.523 112.074C855.893 112.074 855.4 112.385 855.045 113.007C854.69 113.626 854.512 114.503 854.512 115.636C854.512 116.392 854.592 117.034 854.751 117.562C854.91 118.091 855.138 118.493 855.437 118.768C855.738 119.044 856.1 119.182 856.523 119.182ZM864.023 120.119C863.381 120.119 862.835 119.945 862.383 119.595C861.931 119.243 861.586 118.733 861.347 118.065C861.109 117.395 860.989 116.585 860.989 115.636C860.989 114.693 861.109 113.888 861.347 113.22C861.589 112.55 861.935 112.038 862.387 111.686C862.842 111.331 863.387 111.153 864.023 111.153C864.66 111.153 865.204 111.331 865.656 111.686C866.11 112.038 866.457 112.55 866.695 113.22C866.937 113.888 867.058 114.693 867.058 115.636C867.058 116.585 866.938 117.395 866.7 118.065C866.461 118.733 866.116 119.243 865.664 119.595C865.212 119.945 864.665 120.119 864.023 120.119ZM864.023 119.182C864.66 119.182 865.154 118.875 865.506 118.261C865.859 117.648 866.035 116.773 866.035 115.636C866.035 114.881 865.954 114.237 865.792 113.706C865.633 113.175 865.403 112.77 865.102 112.491C864.803 112.213 864.444 112.074 864.023 112.074C863.393 112.074 862.9 112.385 862.545 113.007C862.19 113.626 862.012 114.503 862.012 115.636C862.012 116.392 862.092 117.034 862.251 117.562C862.41 118.091 862.638 118.493 862.937 118.768C863.238 119.044 863.6 119.182 864.023 119.182ZM870.842 115.636C870.842 116.71 870.701 117.699 870.42 118.602C870.141 119.503 869.742 120.332 869.222 121.091H868.336C868.54 120.81 868.731 120.463 868.907 120.051C869.086 119.642 869.242 119.193 869.376 118.705C869.509 118.213 869.613 117.706 869.687 117.183C869.763 116.658 869.802 116.142 869.802 115.636C869.802 114.96 869.737 114.274 869.606 113.578C869.475 112.882 869.299 112.236 869.077 111.639C868.856 111.043 868.609 110.557 868.336 110.182H869.222C869.742 110.94 870.141 111.771 870.42 112.675C870.701 113.575 870.842 114.562 870.842 115.636Z" fill="white"/>
</svg>
